<svg width="185" height="186" viewBox="0 0 185 186" fill="none" xmlns="http://www.w3.org/2000/svg">
<path fill-rule="evenodd" clip-rule="evenodd" d="M151.5 30L102 1L41.5 35.5L42.5 70.5L25 81V102.5L43 93.5V104L51.5 108.5L33.5 118.5L53 129.5L70.5 120L102 137.5L161 102.5V45L141 55.5V91L102 114.5L91 108L125.5 87.5V67L72 96.5L63.5 92.5V82.5L151.5 30ZM102 24.5L63.5 47V60L112 30L102 24.5Z" fill="black" stroke="black"/>
<path d="M14.9378 161.105V165.02H24.8378V172.535H14.9378V177.035H26.1878V185H4.94775V153.14H26.1878V161.105H14.9378ZM49.5726 165.515V173.75H28.6026V165.515H49.5726ZM75.4104 164.03C75.0204 163.4 74.4654 162.92 73.7454 162.59C73.0254 162.23 72.1554 162.05 71.1354 162.05C69.2154 162.05 67.7304 162.68 66.6804 163.94C65.6304 165.17 65.1054 166.865 65.1054 169.025C65.1054 171.515 65.6904 173.375 66.8604 174.605C68.0304 175.835 69.8304 176.45 72.2604 176.45C74.5704 176.45 76.4304 175.52 77.8404 173.66H69.8754V166.595H86.1204V176.585C84.7404 178.955 82.8354 180.995 80.4054 182.705C77.9754 184.385 74.9004 185.225 71.1804 185.225C67.8804 185.225 65.0004 184.55 62.5404 183.2C60.1104 181.82 58.2354 179.9 56.9154 177.44C55.6254 174.98 54.9804 172.175 54.9804 169.025C54.9804 165.875 55.6254 163.07 56.9154 160.61C58.2354 158.15 60.1104 156.245 62.5404 154.895C64.9704 153.515 67.8204 152.825 71.0904 152.825C75.2604 152.825 78.6504 153.83 81.2604 155.84C83.9004 157.85 85.4604 160.58 85.9404 164.03H75.4104ZM99.4833 153.14V171.095C99.4833 172.565 99.7983 173.735 100.428 174.605C101.088 175.445 102.138 175.865 103.578 175.865C105.018 175.865 106.083 175.445 106.773 174.605C107.463 173.735 107.808 172.565 107.808 171.095V153.14H117.753V171.095C117.753 174.125 117.123 176.72 115.863 178.88C114.603 181.01 112.878 182.615 110.688 183.695C108.498 184.775 106.053 185.315 103.353 185.315C100.653 185.315 98.2533 184.775 96.1533 183.695C94.0833 182.615 92.4633 181.01 91.2933 178.88C90.1233 176.75 89.5383 174.155 89.5383 171.095V153.14H99.4833ZM138.082 185L132.097 173.57H132.052V185H122.062V153.14H136.912C139.492 153.14 141.697 153.605 143.527 154.535C145.357 155.435 146.722 156.68 147.622 158.27C148.552 159.83 149.017 161.6 149.017 163.58C149.017 165.71 148.417 167.6 147.217 169.25C146.047 170.9 144.352 172.085 142.132 172.805L149.062 185H138.082ZM132.052 166.91H136.012C136.972 166.91 137.692 166.7 138.172 166.28C138.652 165.83 138.892 165.14 138.892 164.21C138.892 163.37 138.637 162.71 138.127 162.23C137.647 161.75 136.942 161.51 136.012 161.51H132.052V166.91ZM161.973 153.14V171.095C161.973 172.565 162.288 173.735 162.918 174.605C163.578 175.445 164.628 175.865 166.068 175.865C167.508 175.865 168.573 175.445 169.263 174.605C169.953 173.735 170.298 172.565 170.298 171.095V153.14H180.243V171.095C180.243 174.125 179.613 176.72 178.353 178.88C177.093 181.01 175.368 182.615 173.178 183.695C170.988 184.775 168.543 185.315 165.843 185.315C163.143 185.315 160.743 184.775 158.643 183.695C156.573 182.615 154.953 181.01 153.783 178.88C152.613 176.75 152.028 174.155 152.028 171.095V153.14H161.973Z" fill="black"/>
</svg>
